<?xml version="1.0" encoding="utf-8"?>
<!-- Generator: Adobe Illustrator 25.2.3, SVG Export Plug-In . SVG Version: 6.00 Build 0)  -->
<svg version="1.1" id="Layer_1" xmlns="http://www.w3.org/2000/svg" xmlns:xlink="http://www.w3.org/1999/xlink" x="0px" y="0px"
	 viewBox="0 0 512 512" style="enable-background:new 0 0 512 512;" xml:space="preserve">
<style type="text/css">
	.st0{fill:#F26322;}
</style>
<path class="st0" d="M444.2,32H70.3C49.8,32,32,46.7,32,66.9v374.7c0,20.3,17.8,38.4,38.3,38.4h373.8c20.5,0,35.9-18.2,35.9-38.4
	V66.9C480.1,46.7,464.6,32,444.2,32z M170.9,405.4h-64.2V205.9h64.2V405.4z M141,175.5h-0.5c-20.5,0-33.8-15.3-33.8-34.4
	c0-19.5,13.7-34.4,34.7-34.4s33.9,14.8,34.3,34.4C175.6,160.2,162.4,175.5,141,175.5z M405.4,405.4h-64.2V296.3
	c0-26.1-9.3-44-32.6-44c-17.7,0-28.2,12-32.9,23.7c-1.8,4.2-2.2,9.9-2.2,15.8v113.7h-64.2V205.9h64.2v27.8
	c9.3-13.3,23.9-32.4,57.9-32.4c42.1,0,74,27.8,74,87.6L405.4,405.4z"/>
</svg>
